<svg width="1981" height="874" viewBox="0 0 1981 874" fill="none" xmlns="http://www.w3.org/2000/svg">
<path d="M1859.53 261.6H1966.33L1791.13 544.8V559.2L1980.73 856.8H1871.53L1709.53 595.2H1687.93L1525.93 856.8H1416.73L1606.33 559.2V544.8L1431.13 261.6H1537.93L1687.93 508.8H1709.53L1859.53 261.6Z" fill="white"/>
<path d="M732.366 16.8H1008.37C1112.37 16.8 1188.37 41.6001 1236.37 91.2001C1284.37 140.8 1308.37 220 1308.37 328.8V544.8C1308.37 653.6 1284.37 732.8 1236.37 782.4C1188.37 832 1112.37 856.8 1008.37 856.8H732.366V762H804.366V110.4H732.366V16.8ZM993.966 763.2C1030.77 763.2 1062.37 759.6 1088.77 752.4C1115.97 745.2 1138.37 733.2 1155.97 716.4C1173.57 698.8 1186.37 675.6 1194.37 646.8C1203.17 618 1207.57 581.6 1207.57 537.6V336C1207.57 292 1203.17 255.6 1194.37 226.8C1186.37 198 1173.57 175.2 1155.97 158.4C1138.37 140.8 1115.97 128.4 1088.77 121.2C1062.37 114 1030.77 110.4 993.966 110.4H905.166V763.2H993.966Z" fill="white"/>
<path d="M511.2 259.2C511.2 232 505.6 208 494.4 187.2C484 166.4 469.6 149.2 451.2 135.6C432.8 122 411.6 111.6 387.6 104.4C363.6 97.2 338.4 93.6 312 93.6C288.8 93.6 266.8 96.8 246 103.2C225.2 108.8 206.4 117.2 189.6 128.4C173.6 139.6 160.8 153.6 151.2 170.4C141.6 186.4 136.8 205.2 136.8 226.8V234C136.8 257.2 141.6 277.2 151.2 294C160.8 310 174.8 324 193.2 336C212.4 347.2 236 356.8 264 364.8C292 372 324.8 378.4 362.4 384C450.4 397.6 515.2 423.6 556.8 462C598.4 499.6 619.2 550.4 619.2 614.4V628.8C619.2 664.8 612.8 698 600 728.4C588 758 569.6 783.6 544.8 805.2C520.8 826.8 490.8 843.6 454.8 855.6C418.8 867.6 377.2 873.6 330 873.6C276.4 873.6 228.8 866 187.2 850.8C146.4 834.8 112 813.2 84 786C56.8 758 36 725.6 21.6 688.8C7.2 651.2 0 610.4 0 566.4V530.4H100.8V559.2C100.8 632.8 120.8 688 160.8 724.8C201.6 761.6 258 780 330 780C392.4 780 439.2 766.4 470.4 739.2C502.4 711.2 518.4 674.4 518.4 628.8V621.6C518.4 577.6 502 544 469.2 520.8C437.2 497.6 384.8 480.8 312 470.4C269.6 464.8 231.2 456.4 196.8 445.2C163.2 433.2 134.4 418 110.4 399.6C86.4 380.4 68 357.6 55.2 331.2C42.4 304.8 36 273.6 36 237.6V223.2C36 190.4 42.8 160.4 56.4 133.2C70 106 88.8 82.4 112.8 62.4C137.6 42.4 166.8 27.2 200.4 16.8C234.8 5.6 272.4 0 313.2 0C360.4 0 402.4 6.80001 439.2 20.4C476.8 34 508.4 52.4 534 75.6C559.6 98 578.8 124.8 591.6 156C605.2 186.4 612 218.4 612 252V302.4H511.2V259.2Z" fill="white"/>
</svg>
